<?xml version="1.0" encoding="UTF-8"?>
<svg id="Layer_1" data-name="Layer 1" xmlns="http://www.w3.org/2000/svg" viewBox="0 0 4446.5 381.05">
  <defs>
    <style>
      .cls-1 {
        fill: #dae1e2;
      }
    </style>
  </defs>
  <g>
    <path class="cls-1" d="M0,382.73L119.37,6.2h118.82l117.71,376.52h-108.13c-14.39-51.18-28.78-102.35-43.17-153.53h-73.84c-14.99,51.18-29.98,102.35-44.97,153.53H0ZM130.75,229.2h73.84l-36.92-126.52-36.92,126.52Z"/>
    <path class="cls-1" d="M321.81,382.73V6.2h165.94c35.05,0,64.05,3.58,86.99,10.75,20.16,6.16,36.56,18.22,49.18,36.18,12.63,17.96,18.94,38.06,18.94,60.3,0,27.01-8.7,49.43-26.1,67.25-9.63,10.11-24.24,19.48-43.86,28.12l68.85,173.93h-116.6l-52.19-155.74h-47.75v155.74h-103.41ZM425.22,77.87v78.56h61.35c14.8,0,26.37-3.49,34.7-10.47,8.33-6.98,12.49-16.68,12.49-29.08s-4.1-22-12.28-28.8c-8.19-6.8-19.83-10.2-34.91-10.2h-61.35Z"/>
    <path class="cls-1" d="M856.13,248.35l76.76,17.5c-5.27,19.57-12.7,36.96-22.28,52.16-9.58,15.21-21.08,28.14-34.49,38.8-13.42,10.66-28.55,18.77-45.39,24.33-16.84,5.56-34.93,8.34-54.27,8.34-23.51,0-48.12-5.65-73.84-16.95-25.73-11.3-47.8-31.03-66.21-59.19-18.41-28.16-27.62-65.44-27.62-111.84,0-27.1,3.56-52.81,10.69-77.11,7.12-24.3,17.88-45.82,32.27-64.57,14.39-18.74,32.43-33.4,54.13-43.96,21.7-10.57,46.75-15.85,75.16-15.85s55.31,6.34,78.49,19.02c23.18,12.68,41.2,29.2,54.06,49.55,12.86,20.35,19.29,41.32,19.29,62.91l-97.3,5.1c-4.91-40.98-22.9-61.47-53.99-61.47-21.84,0-37.92,10.18-48.23,30.53-10.32,20.35-15.48,52.12-15.48,95.3,0,25.73,2.36,46.7,7.08,62.91,4.72,16.22,12.03,28.23,21.93,36.04,9.9,7.81,22.62,11.71,38.17,11.71s28.52-3.72,38.38-11.16c9.85-7.44,16.8-15.16,20.82-23.15,4.02-7.99,7.98-17.64,11.87-28.94Z"/>
    <path class="cls-1" d="M914.63,382.73V6.2h104.1v145.12h105.63V6.2h104.66v376.52h-104.66v-152.43h-105.63v152.43h-104.1Z"/>
    <path class="cls-1" d="M1313.76,382.73L1193.14,6.2h104.1l73.84,252.35L1445.62,6.2h88.7l-118.82,376.52h-101.74Z"/>
    <path class="cls-1" d="M177.95,132.93s.18-1.87.65-3.76c4.48-18.07,18.41-35.05,18.41-35.05,14.62-17.83,32.32-29.19,42.05-34.76l-16.69-52.88h-101.74L0,383h104.1c24.61-81.71,49.23-163.42,73.84-245.13-.11-1.18-.2-2.9,0-4.95Z"/>
    <path class="cls-1" d="M1497.88,382.73V6.2h272.89v78.97h-168.78v67.25h107.43v78.97h-107.43v72.36h176.7v78.97h-280.8Z"/>
  </g>
  <g>
    <path class="cls-1" d="M1880.16,381.05V6.17h149.35l56.63,186.07,59.94-186.07h148.4v374.88h-103.65V111.28l-84.94,269.77h-61.6l-83.14-269.77v269.77h-80.98Z"/>
    <path class="cls-1" d="M2271.31,381.05L2390.16,6.17h118.29l117.19,374.88h-107.65l-21.42-74.23h-118.85l-21.01,74.23h-85.41ZM2401.49,228.19h73.52l-36.76-125.97-36.76,125.97Z"/>
    <path class="cls-1" d="M2746.21,257.42v-60.1h153.95v183.73h-30.68l-25.98-41.03c-15.11,16.83-31.09,29-47.95,36.5-16.86,7.5-36.16,11.25-57.9,11.25-29.21,0-56.48-7.09-81.81-21.27-25.34-14.18-45.77-35.75-61.29-64.7-15.52-28.95-23.29-64.38-23.29-106.27s7.49-76.77,22.46-106.27c14.97-29.5,35.63-51.75,61.98-66.75,26.35-15,56.11-22.5,89.28-22.5,47.35,0,83.49,12.76,108.41,38.28,24.92,25.52,40.51,54.16,46.78,85.9l-96.87,15.23c-6.73-43.09-25.98-64.63-57.77-64.63-43.76,0-65.64,39.7-65.64,119.1,0,27.99,2.16,50.72,6.49,68.2,4.33,17.47,11.15,30.33,20.45,38.56,9.3,8.23,21.47,12.35,36.48,12.35,16.21,0,28.63-3.27,37.24-9.81,8.61-6.54,14.24-13.58,16.86-21.13,2.63-7.55,4.58-15.76,5.87-24.63h-57.07Z"/>
    <path class="cls-1" d="M2869.53,381.05L2988.38,6.17h118.29l117.19,374.88h-107.65l-21.42-74.23h-118.85l-21.01,74.23h-85.41ZM2999.71,228.19h73.52l-36.76-125.97-36.76,125.97Z"/>
    <path class="cls-1" d="M3205.12,381.05v-47.2l164.18-249.05h-146.63V6.17h292.7v46.65l-169.84,249.6h162.93v78.63h-303.34Z"/>
    <path class="cls-1" d="M3505.61,381.05V6.17h103.65v374.88h-103.65Z"/>
    <path class="cls-1" d="M3624.52,381.05V6.17h94.52l133.63,190.59V6.17h81.54v374.88h-81.54l-147.18-212.41v212.41h-80.98Z"/>
    <path class="cls-1" d="M3948.91,381.05V6.17h271.69v78.63h-168.04v66.96h106.96v78.63h-106.96v72.04h175.92v78.63h-279.57Z"/>
  </g>
  <path class="cls-1" d="M4271.32,106.1V28.44h-28.14V6.17h87.06v22.27h-28.2v77.66h-30.72ZM4330.25,106.1V6.17h43.01l14.87,46.49,15.85-46.49h42.52v99.93h-30.48V40.64l-21.63,65.46h-18.62l-21.14-65.22v65.22h-24.39Z"/>
</svg>