<svg xmlns="http://www.w3.org/2000/svg" viewBox="0 0 720 820" role="img" aria-labelledby="title desc"><title id="title">ARCHVE community support figures</title><desc id="desc">Two abstract editorial figures holding hands.</desc><rect width="720" height="820" fill="#000"/><g fill="none" stroke="#f2f2ee" stroke-width="18" stroke-linecap="round" stroke-linejoin="round"><circle cx="224" cy="180" r="76"/><circle cx="496" cy="180" r="76"/><path d="M142 336c22-72 67-108 82-108s60 36 82 108l-20 244-38 162h-48l-22-168-22 168h-48l-38-162z"/><path d="M414 336c22-72 67-108 82-108s60 36 82 108l72 218-42 18-86-176-2 184-38 162h-48l-22-168-22 168h-48l-38-162 2-184-86 176-42-18 72-218"/><path d="M286 404c45 18 103 18 148 0"/></g><text x="360" y="790" fill="#f2f2ee" font-family="Arial, Helvetica, sans-serif" font-size="20" font-weight="700" letter-spacing="5" text-anchor="middle">LET’S HOLD HANDS</text></svg>