<?xml version="1.0" encoding="UTF-8"?>
<svg id="Layer_1" data-name="Layer 1" xmlns="http://www.w3.org/2000/svg" viewBox="0 0 1222.69 1122.21">
  <defs>
    <style>
      .cls-1 {
        fill: #dfdfdf;
      }

      .cls-2 {
        fill: #d8e0e2;
      }

      .cls-3 {
        fill: #9c2f8b;
      }
    </style>
  </defs>
  <g>
    <path class="cls-2" d="M719.26,769.45c1.51-1.59,2.67-3.25,3.03-5.11.28-1.46-.81-4.03-2.19-5.3l-7.88-7.27c-2.3-2.12-6.59-1-8.59,1.07l-25.58,26.37-34.3,35.44-86.69,90.19-25.78,27.02-25.72,27.04-64.26,68.07c-9.51,10.07-25.11,12.64-38.64,9.39-10.7-2.57-19.15-9.3-26.1-17.65-9.41-11.29-12.45-26.79-8.85-40.9,2.42-9.47,6.98-16.83,13.52-23.76l29.93-31.75,54.19-57.32,39.25-41.65,72.63-76.34,18.11-19.1,50.19-53.13,78.51-83.77,49.02-52.33,16.65-17.72,25.77-27.62,15.25-16.35c2.14-2.3,2.73-6.65.27-9l-6.96-6.67c-3.31-3.17-7.01-2.23-9.9.81l-42.62,44.94-99.26,105.33-30.42,32.7c-9.13,9.81-21.97,14.52-34.51,9.14-9.71-4.16-16.51-12.19-19.45-22.38-3.4-11.78-1.88-24.91,6.71-34.06l14.96-15.94,67.42-72.29,58.97-62.9,29.97-31.78,47.86-50.7c8.92-9.45,21.77-14.54,34.33-17.21,24.07-5.11,48.15,1.24,68.61,14.77,40.25,33.32,79.61,67.45,118.1,103.05,22.44,20.75,44.48,41.51,64.95,64.01l9.17,12.83c20.67,33.02,16.72,75.54-7.73,105.5l-26.81,29.36-33.84,36.69-11.95,12.95-93.19,100.72-29.16,31.16-11.18,11.32c-18.29,14.56-43.14,9.39-55.66-10.36-6.51-11.11-6.03-25.2,1.66-35.75l76.77-81.33,67.44-72.3,27.77-29.96c2.07-2.23,4.25-6.12,1.43-8.82l-8.43-8.08c-1.29-1.23-5.06-1.51-6.91-.76l-79.01,83.72-18.73,19.91-108.32,114.68-65.1,68.25-18.85,19.69-62.49,65.27-110.29,115.2c-3.29,3.44-7.64,6.24-11.69,8.29-19.65,9.95-43.24,5.19-58.69-10.02-7.12-7.01-12.6-14.65-14.97-24.53-2.97-12.38-2.2-27.2,6.79-36.93l35.89-38.86,49.18-52,14.78-15.54,65.42-68.41,11.46-11.98,61.58-64.93,23.2-24.33Z"/>
    <path class="cls-2" d="M1206.33,373.49c-9.09,54.21-60.41,90.79-114.61,81.69-54.2-9.09-90.77-60.41-81.67-114.62,9.09-54.21,60.41-90.79,114.61-81.69,54.2,9.09,90.77,60.41,81.67,114.62ZM1062.03,304.84l3.7-7.24c.93-1.82-.49-3.5-2.54-3.86-1.42-.25-2.51.88-3.13,2.6l-2.59,7.25c-.31.88.73,2.47,1.71,2.77.74.22,2.46-.74,2.86-1.52ZM1066.83,309.86l5.73-8.29c-.62-1.86-2.56-3.84-4.45-4.07l-4.02,6.5c-.75,1.21-1.28,2.93-1.01,3.92s3.11,2.86,3.75,1.93ZM1057.55,326.22l24.53,13.01c2.37-1.27,5.65-3.24,4.91-5.92l-4.75-17.03-3.24-8.83c-3.11-.58-6.33.83-7.35,3.6l5.01,15.94-14.16-7.48c-1.11-.59-3.51,1.02-4.25,1.93-.83,1.02-1.26,3.39-.69,4.78ZM1092.55,416.52c-18.72-7.94-33.2-23.04-40.89-41.79-3.49-8.51-5.13-17.05-3.94-26.33.28-2.21-.14-5.45-2.51-6.28-3.59-1.25-6.67,1.87-6.97,5.48-.86,10.19.92,19.8,4.4,29.56,6.28,17.57,18.95,32.05,34.77,42,9.51,5.98,31.49,14.72,32.27,6.06.61-6.83-6.51-4.2-17.14-8.7ZM1132.92,394.45l14.46,8.88,3.71-2.21c.93-.55,2.17-2.82,1.94-3.85-.21-.9-1.56-2.09-2.56-2.67l-21.34-12.24c-2.84,1.64-5.16,3.8-7.02,6.43l6.85,22.83c.41,1.37.96,2.92,1.85,4.04,3.17-.71,5.9-2.39,7.09-4.9l-4.96-16.32Z"/>
    <path d="M1132.67,393.66l4.99,16.34c-1.2,2.51-3.93,4.19-7.12,4.9-.89-1.13-1.44-2.67-1.85-4.05l-6.89-22.86c1.86-2.63,4.19-4.79,7.04-6.43l21.43,12.26c1.01.58,2.37,1.77,2.58,2.67.24,1.03-1.01,3.3-1.94,3.85l-3.72,2.21-14.52-8.9Z"/>
    <path d="M1092.15,415.73c10.67,4.51,17.82,1.89,17.21,8.72-.78,8.66-22.84-.09-32.4-6.08-15.89-9.97-28.62-24.46-34.93-42.05-3.51-9.77-5.29-19.39-4.44-29.59.3-3.62,3.39-6.74,6.99-5.49,2.38.83,2.81,4.07,2.52,6.29-1.19,9.29.45,17.83,3.97,26.36,7.74,18.77,22.27,33.9,41.07,41.85Z"/>
    <path d="M1057.55,326.22c-.57-1.39-.14-3.77.69-4.78.74-.91,3.14-2.52,4.25-1.93l14.16,7.48-5.01-15.94c1.03-2.77,4.25-4.18,7.35-3.6l3.24,8.83,4.75,17.03c.75,2.67-2.53,4.65-4.91,5.92l-24.53-13.01Z"/>
    <path d="M1066.83,309.86c-.64.93-3.48-.94-3.75-1.93s.26-2.71,1.01-3.92l4.02-6.5c1.89.23,3.82,2.21,4.45,4.07l-5.73,8.29Z"/>
    <path d="M1062.03,304.84c-.4.78-2.12,1.75-2.86,1.52-.97-.3-2.02-1.89-1.71-2.77l2.59-7.25c.62-1.73,1.71-2.85,3.13-2.6,2.04.36,3.47,2.04,2.54,3.86l-3.7,7.24Z"/>
  </g>
  <g>
    <path class="cls-3" d="M177.33,699.24l97.34-97.73-14.82-16.47-88.76,87.81-99.14,98.1c-8.11,8.02-18.9,11.12-30.18,10.3-22-1.59-39.99-18.96-41.63-41.18-.81-11.02,2.25-22.83,10.38-30.93l178.82-178.13c1.18-6.08,1.48-14.27-3.14-19l-52.69-53.98c-7.91-8.1-8.37-22.73,1.73-28.77l177.85-106.33,202.14-121.31c3.13-2.14,3.47-9.49,1.41-11.63-3.32-3.45-9.18-2.6-13.33-.38l-213.81,114.62c-9.48,5.08-20.63,3.82-29.76-.95-12.13-6.33-20.53-17.93-20.92-31.99-.37-12.99,6.56-25.74,18.31-32.2l198.09-109.06c27.58-15.19,57.19-25.66,88.05-31.31,15.98-2.92,31.79-1.3,46.61,4.72,11.96,4.86,22.93,11.58,32.16,20.92l130.28,131.85c16.18,16.38,19.74,42.88,12.53,63.87-6.25,18.19-13.55,34.57-22.56,51.33l-121.86,226.69c-11.56,21.5-34.02,31.29-55.17,19.22-19.96-11.39-25.03-33.9-14.37-53.95l112.99-212.47c2.06-3.87,1.77-9.3-.98-12.69-2.34-2.87-10.63-2.82-13,1.29l-221.98,384.66c-5.48,9.5-20.02,9.33-28.4.99l-50.85-50.65c-5.77-5.75-14.83-5.98-21.89-2.71l-175.16,173.99c-9.44,9.38-21.74,12.8-34.82,11.75-15.28-1.24-27.57-11.54-33.68-25.15-7.95-17.7-3.35-35.44,9.95-48.75l84.28-84.4Z"/>
    <path class="cls-3" d="M859.75,97.16c-.12,53.54-43.61,96.84-97.14,96.72-53.53-.12-96.82-43.62-96.7-97.16C666.02,43.18,709.51-.12,763.04,0s96.82,43.62,96.7,97.16ZM710.09,54l2.41-6.81c.51-1.43-.68-3.66-2-3.93-1.01-.2-3.3,1.08-3.49,2.15l-1.42,8.12c-.15.83,1.42,2.9,2.15,2.6.59-.23,2.09-1.4,2.35-2.13ZM715.67,57.93l4-8.53c-.5-1.54-3.36-3.41-4.8-3.32l-3.39,8.28c-.35.85.64,3.18,1.28,3.7.51.42,2.63.48,2.92-.14ZM709.68,75.53l24.97,8.45c2-1.18,3.92-3.41,4.54-5.38l-12.21-24.72c-2.47-.46-6.96,2.4-6.43,4.52l6.79,14.41-14.11-4.56c-1.38-.44-3.74,1.53-4.32,2.65-.51.98-.38,4.23.77,4.62ZM748.77,153.99c-17.61-6.73-31.83-19.6-40.42-36.38-7.31-14.28-2.57-25.6-9.86-25.1-1.74.12-4.71,2.7-4.51,5.29,1.75,22.48,14.69,42.59,33.46,55.28,12.65,8.55,26.88,13.92,42.06,13.75,3.35-.04,5.93-2.21,5.63-4.92-.72-6.63-10.33-1.79-26.37-7.92ZM792.84,129.25l14.62,5.5c2.41.91,6.12-4.75,4.7-7.14l-25.18-9.74c-2.44,2.35-4.29,4.68-5.79,7.62l11.99,23.9c2.5.47,6.93-3.19,6.5-5.61l-6.84-14.53Z"/>
    <path class="cls-1" d="M748.77,153.99c16.04,6.13,25.65,1.28,26.37,7.92.3,2.72-2.28,4.88-5.63,4.92-15.19.17-29.41-5.2-42.06-13.75-18.77-12.69-31.71-32.8-33.46-55.28-.2-2.59,2.77-5.17,4.51-5.29,7.29-.5,2.55,10.82,9.86,25.1,8.59,16.79,22.8,29.65,40.42,36.38Z"/>
    <path class="cls-1" d="M792.84,129.25l6.84,14.53c.43,2.43-4,6.08-6.5,5.61l-11.99-23.9c1.51-2.94,3.35-5.27,5.79-7.62l25.18,9.74c1.42,2.39-2.3,8.04-4.7,7.14l-14.62-5.5Z"/>
    <path class="cls-1" d="M709.68,75.53c-1.16-.39-1.28-3.63-.77-4.62.58-1.12,2.95-3.1,4.32-2.65l14.11,4.56-6.79-14.41c-.54-2.12,3.96-4.98,6.43-4.52l12.21,24.72c-.62,1.97-2.54,4.2-4.54,5.38l-24.97-8.45Z"/>
    <path class="cls-1" d="M715.67,57.93c-.29.61-2.41.56-2.92.14-.64-.52-1.63-2.86-1.28-3.7l3.39-8.28c1.44-.1,4.3,1.78,4.8,3.32l-4,8.53Z"/>
    <path class="cls-1" d="M710.09,54c-.26.73-1.76,1.9-2.35,2.13-.73.29-2.3-1.77-2.15-2.6l1.42-8.12c.19-1.07,2.48-2.35,3.49-2.15,1.32.26,2.5,2.49,2,3.93l-2.41,6.81Z"/>
  </g>
</svg>