<?xml version="1.0" encoding="UTF-8"?>
<svg id="Layer_1" data-name="Layer 1" xmlns="http://www.w3.org/2000/svg" viewBox="0 0 3364.9 539.13">
  <defs>
    <style>
      .cls-1, .cls-2 { fill: #d9e1e2; }
      .cls-3 { letter-spacing: -.32em; }
      .cls-2 { font-family: BrokeRegular, Broke; font-size: 172.54px; }
      .cls-4 { letter-spacing: -.29em; }
      .cls-5 { letter-spacing: -.08em; }
    </style>
  </defs>
  <text class="cls-2" transform="translate(0 513.77)"><tspan x="0" y="0">A R</tspan><tspan class="cls-4" x="222.92" y="0">A</tspan><tspan x="255.36" y="0">W CU</tspan><tspan class="cls-3" x="578.02" y="0">L</tspan><tspan x="590.44" y="0">TURAL HOU</tspan><tspan class="cls-5" x="1319.43" y="0">S</tspan><tspan x="1414.5" y="0">TON V ISUAL EXPERIENCE</tspan></text>
  <g>
    <path class="cls-1" d="M0,291.7L90.33,4.73h89.91l89.07,286.97h-81.83c-10.89-39-21.78-78.01-32.67-117.01h-55.88c-11.34,39-22.69,78.01-34.03,117.01H0ZM98.95,174.68h55.88l-27.94-96.43-27.94,96.43Z"/>
    <path class="cls-1" d="M243.53,291.7V4.73h125.57c26.53,0,48.47,2.73,65.83,8.19,15.26,4.69,27.66,13.88,37.22,27.57,9.55,13.69,14.33,29.01,14.33,45.95,0,20.59-6.58,37.67-19.75,51.26-7.28,7.71-18.35,14.85-33.19,21.43l52.1,132.56h-88.23l-39.5-118.7h-36.13v118.7h-78.25ZM321.79,59.35v59.87h46.43c11.2,0,19.96-2.66,26.26-7.98,6.3-5.32,9.45-12.71,9.45-22.16s-3.1-16.77-9.3-21.95c-6.2-5.18-15-7.77-26.42-7.77h-46.43Z"/>
    <path class="cls-1" d="M647.88,189.28l58.09,13.34c-3.99,14.92-9.61,28.17-16.86,39.76-7.25,11.59-15.95,21.45-26.1,29.57-10.15,8.12-21.6,14.3-34.35,18.54-12.75,4.24-26.44,6.36-41.07,6.36-17.79,0-36.41-4.31-55.88-12.92-19.47-8.61-36.17-23.65-50.1-45.11-13.93-21.46-20.9-49.88-20.9-85.24,0-20.66,2.69-40.25,8.09-58.77,5.39-18.52,13.53-34.93,24.42-49.21,10.89-14.29,24.54-25.45,40.97-33.51,16.42-8.05,35.38-12.08,56.88-12.08s41.86,4.83,59.4,14.5c17.54,9.66,31.18,22.25,40.91,37.76,9.73,15.51,14.6,31.5,14.6,47.95l-73.63,3.89c-3.71-31.23-17.33-46.85-40.86-46.85-16.53,0-28.69,7.76-36.5,23.27-7.81,15.51-11.71,39.72-11.71,72.64,0,19.61,1.79,35.59,5.36,47.95,3.57,12.36,9.1,21.52,16.6,27.47,7.49,5.95,17.12,8.93,28.89,8.93s21.59-2.84,29.04-8.51c7.46-5.67,12.71-11.55,15.76-17.65,3.04-6.09,6.04-13.44,8.98-22.06Z"/>
    <path class="cls-1" d="M692.15,291.7V4.73h78.78v110.61h79.93V4.73h79.2v286.97h-79.2v-116.17h-79.93v116.17h-78.78Z"/>
    <path class="cls-1" d="M994.19,291.7L902.91,4.73h78.78l55.88,192.33,56.41-192.33h67.12l-89.91,286.97h-77Z"/>
    <path class="cls-1" d="M134.66,101.31s.14-1.42.49-2.86c3.39-13.77,13.93-26.72,13.93-26.72,11.06-13.59,24.46-22.25,31.82-26.49l-12.63-40.3h-77L0,291.91h78.78c18.63-62.28,37.25-124.55,55.88-186.83-.09-.9-.15-2.21,0-3.77Z"/>
    <path class="cls-1" d="M1133.53,291.7V4.73h206.51v60.19h-127.73v51.26h81.3v60.19h-81.3v55.15h133.72v60.19h-212.5Z"/>
  </g>
  <g>
    <path class="cls-1" d="M1422.82,290.42V4.71h113.02l42.85,141.81,45.36-141.81h112.3v285.71h-78.43V84.81l-64.28,205.6h-46.62l-62.92-205.6v205.6h-61.28Z"/>
    <path class="cls-1" d="M1718.82,290.42L1808.76,4.71h89.52l88.68,285.71h-81.47l-16.21-56.58h-89.94l-15.9,56.58h-64.63ZM1817.34,173.92h55.64l-27.82-96.01-27.82,96.01Z"/>
    <path class="cls-1" d="M2078.2,196.19v-45.81h116.5v140.03h-23.21l-19.66-31.27c-11.43,12.83-23.53,22.1-36.29,27.82-12.76,5.72-27.37,8.58-43.82,8.58-22.1,0-42.74-5.4-61.91-16.21-19.17-10.81-34.63-27.24-46.38-49.31-11.75-22.07-17.62-49.06-17.62-81s5.67-58.51,16.99-81c11.33-22.48,26.96-39.44,46.9-50.88,19.94-11.43,42.46-17.15,67.56-17.15,35.83,0,63.18,9.73,82.04,29.18,18.86,19.45,30.66,41.27,35.4,65.47l-73.31,11.61c-5.09-32.84-19.66-49.26-43.72-49.26-33.12,0-49.68,30.26-49.68,90.78,0,21.33,1.64,38.66,4.92,51.98,3.28,13.32,8.43,23.11,15.48,29.39,7.04,6.27,16.24,9.41,27.61,9.41,12.27,0,21.66-2.49,28.18-7.48,6.52-4.98,10.77-10.35,12.76-16.1,1.99-5.75,3.47-12.01,4.45-18.77h-43.19Z"/>
    <path class="cls-1" d="M2171.52,290.42L2261.46,4.71h89.52l88.68,285.71h-81.47l-16.21-56.58h-89.94l-15.9,56.58h-64.63ZM2270.04,173.92h55.64l-27.82-96.01-27.82,96.01Z"/>
    <path class="cls-1" d="M2425.49,290.42v-35.98l124.24-189.81h-110.96V4.71h221.5v35.56l-128.53,190.23h123.3v59.92h-229.55Z"/>
    <path class="cls-1" d="M2652.88,290.42V4.71h78.43v285.71h-78.43Z"/>
    <path class="cls-1" d="M2742.86,290.42V4.71h71.53l101.13,145.26V4.71h61.7v285.71h-61.7l-111.38-161.89v161.89h-61.28Z"/>
    <path class="cls-1" d="M2988.35,290.42V4.71h205.6v59.92h-127.17v51.04h80.94v59.92h-80.94v54.9h133.13v59.92h-211.57Z"/>
  </g>
  <path class="cls-1" d="M3232.34,80.87V21.68h-21.29V4.71h65.89v16.97h-21.34v59.19h-23.25ZM3276.93,80.87V4.71h32.55l11.25,35.43,12-35.43h32.18v76.16h-23.06V30.98l-16.37,49.89h-14.09l-16-49.7v49.7h-18.46Z"/>
</svg>
