<?xml version="1.0" encoding="UTF-8"?>
<svg id="Layer_1" xmlns="http://www.w3.org/2000/svg" version="1.1" viewBox="0 0 4328.8 955.6">
  <!-- Generator: Adobe Illustrator 30.5.1, SVG Export Plug-In . SVG Version: 2.1.4 Build 3)  -->
  <defs>
    <style>
      .st0 {
        fill: #e8e8e8;
      }
    </style>
  </defs>
  <path class="st0" d="M2737.3,939.4l-.3-374.4-257.9.2v374s-253,0-253,0l-.6-173.7c-63.8,110.1-168.9,178.7-296.4,188.6-186.7,14.6-351.4-85.3-418.1-262.4-24.1-74.5-31.7-148.6-28.2-229.7-29.4,19.1-57.2,35.5-88.8,50.4l167.4,426.7-283.2.3-126.9-382.6-116.7.6v382s-431.5,0-431.5,0l-170.4-599.7-180,600.4-252.8-.5L290.5,15.2l288.7-.2,202.6,651.8,1.1-651.6h437.1c63.2,2.8,121.3,9.2,181,26.7,73.1,24.5,124.9,80,151.7,156.7C1615.8,84,1725.2,12.8,1854.6,1.9c152.6-12.9,286.5,40.8,371,168.9l.6-155.5h253s0,356.2,0,356.2l258,.2V15.2s420.1-.2,420.1-.2l180,617.8L3519.1,15l790.5.3.3,193.5-411.2.2.4,165.5h261.3s0,193.4,0,193.4h-261.5c0,.1,0,177.8,0,177.8h429.7s0,193.6,0,193.6h-682.4s-1-637.9-1-637.9l-200.2,637.7-247,.4-205.8-643.9-1.3,643.7h-253.9ZM2053,685.9l31.6-75.7,141.4,32v-317.4s-192.2,10.1-192.2,10.1c-5.3-46.8-17-88.8-49.2-121.7-52.1-44-130-38.1-177.6,10.5-67,87.2-66.5,262-53.4,373,10.5,88.8,49.5,160.3,141.1,168,65.7,5.5,122.3-21.1,158.3-78.8ZM1278.6,350.2c26.7-36.6,27.4-82.3,5.3-119.6-19.9-23.4-49-38.8-81.5-38.9l-167.9-.7v192.9s159.1-.2,159.1-.2c31.6,0,61.3-11.2,84.9-33.5Z"/>
</svg>